# xmcd
#
# Track frame offsets: 
#        150
#        12566
#        24702
#        37318
#        48690
#        60466
#        78922
#        95914
#        109886
#        129314
#        144378
#        156442
#        169274
#        177694
#        201550
#
# Disc length: 2856 seconds
#
# Revision: 3
# Processed by: cddbd v1.5PL3 Copyright (c) Steve Scherf et al.
# Submitted via: ExactAudioCopy v0.95a4
#
DISCID=e50b260f
DTITLE=T-Bone Walker - T-Bone Blues
DYEAR=1960
DGENRE=Blues
TTITLE0=Papa Ain't Salty
TTITLE1=Why Not
TTITLE2=T-Bone Shuffle
TTITLE3=Play On Little Girl
TTITLE4=T-Bone Blues Special
TTITLE5=Mean Old World
TTITLE6=T-Bone Blues
TTITLE7=Call It Stormy Monday
TTITLE8=Blues For Marili
TTITLE9=Shufflin' The Blues
TTITLE10=Evenin'
TTITLE11=Two Bones And A Pick
TTITLE12=You Don't Know What You're Doing
TTITLE13=How Long Blues
TTITLE14=Blues Rock
EXTD=
EXTT0=
EXTT1=
EXTT2=
EXTT3=
EXTT4=
EXTT5=
EXTT6=
EXTT7=
EXTT8=
EXTT9=
EXTT10=
EXTT11=
EXTT12=
EXTT13=
EXTT14=
PLAYORDER=
